<?xml version="1.0" encoding="utf-8"?>
<!-- Generator: Adobe Illustrator 22.1.0, SVG Export Plug-In . SVG Version: 6.00 Build 0)  -->
<svg version="1.1" id="Calque_1" xmlns="http://www.w3.org/2000/svg" xmlns:xlink="http://www.w3.org/1999/xlink" x="0px" y="0px"
	 viewBox="0 0 74.6 64.9" style="enable-background:new 0 0 74.6 64.9;" xml:space="preserve">
<style type="text/css">
	.st0{fill:#935A9E;}
	.st1{fill:#E58140;}
	.st2{fill:#4B4B99;}
	.st3{fill:#F9D055;}
	.st4{fill:#DC4858;}
	.st5{fill:#8FC056;}
	.st6{fill:#38B8D7;}
</style>
<title>logo</title>
<path class="st0" d="M9.2,32.4l16.5-16.5l16.5,16.5L25.7,48.9L9.2,32.4z"/>
<path class="st1" d="M25.7,15.9l16.5,16.5l16.5-16.5C58.7,15.9,25.7,15.9,25.7,15.9z"/>
<path class="st2" d="M0,64.9l16.5-16.5L0,31.9L0,64.9z"/>
<path class="st3" d="M25.7,15.9L41.6,0h33L58.7,15.9C58.7,15.9,25.7,15.9,25.7,15.9z"/>
<path class="st4" d="M9.2,32.4V0h32.4L9.2,32.4z"/>
<path class="st5" d="M74.6,0v64.8L42.2,32.4L74.6,0z"/>
<path class="st6" d="M9.8,64.8h64.8L42.2,32.4L9.8,64.8z"/>
</svg>
